<?xml version="1.0" encoding="UTF-8"?>
<svg version="1.1" viewBox="0 0 1640 932" width="1280" height="1280" xmlns="http://www.w3.org/2000/svg">
<path transform="translate(0)" d="m0 0h1640v932h-1640z" fill="#010101"/>
<path transform="translate(793,143)" d="m0 0h17l53 1v2l13 1 7-1v-2h4v2l21 1 7-1v-2h18v2h60l33 1 6 1v2l7 1v2h15v-2l10-1h9l4 1v2l6 2 3 3 2 4v18l-1 16-1 4h-2l-1 19h-2v9l-2 10h-2v22l-2 19h-2v14l-2 40h-2l-1 29h-2v48l-1 59-1 16h-2v4h2v2h9l7 1h12l11-1v-2h17v2l19 1v-18h-2l-1-12 1-4 2-1 2-5h2l2-5 5-4 5-1v-2l5-1h17v-2l24-2h6v-2l31-2h49v-2h7v2h39l29 2v2h11v-2h34v2l48 2v2h12l7 1v2l11 1 5 1v2h6l5 2v2l4 1 3 1v2l4 1 5 6 6 5 2 10-1 11-1 4h-2l-1 5-1 16h-2v10l-2 8h-2l-1 8-1 3h-2l-1 6h-2l-2 9h-2l-2 16h-2l-1 10-1 3h-2l-1 5h-2l-1 4-5 6-7 6h-2l-1 5-1 2h-2l-2 6h-2l-2 5h-2l-1 4h-2l-2 4h-2l-1 4-4 5-1 2h-2l-1 3h-2l-1 4-3 1-1 6-3 1-2 6-3 2-1 3h-2l-1 3-4 4h-2l-1 7-1 3h-2l-2 6h-2l-1 4h-2l-2 6h-2l-1 4-1 3-6 5-5 6-7 6-4 5-4 2h-3v2l-7 2h-5v2l-7 1-19 1-4 5-3 2-1 4h-2l-2 9-2 1-2 4-2 1-1 3-4 4h-2l-1 4-5 6-5 2-1 5-3 1-1 4-1 3-2 1-1 4v16l1 6h2l2 5v3h2l2 12v11l-2 11h-2l-1 7-3 1-1 4-1 3h-2l-1 3-6 5-5 6-3 1-1 2-6 2h-4v2l-15 2h-32l-26-2v-2h-10l-19-2v-2h-20l-22-1-3 1v30l-1 4h-1117v-317l11 1 4 1v2l16 2v2l8 1v2l22 2v2h15l8 1 67 1v2l25 1 8 1v2l23 1v2l18 1 8 1v2l12 1 6 1v2l20 1 11 1v2l11 1v2h13l18 1 1 3 15 2v2h14l8 1 6-1v-2l5-2 12 2v2h4v-2h21v2l15 1 8 1v2l8 1 2 2h8l2 4h9l1-2h4v2h3l1-3 4-3v2h4v-2h4v2h21l9 1h14l8 1v2l6 1 1 3 5 1 3 1v2l6 1v2h9v-2l7-1v-2l7-1h13l17 1v2l32 1v2l41 1 11 1v2h2l1-2v2h3l1-2v2h64l15 2v2l11 1 5 1v1l18 2v2l15 1 4 1-1-22h-2l-2-13v-6h-2l-2-11v-12h-2v-5h2v-3l-32-1v-2h-12l-8-2v-2l-7-1v-2l-5-1-3-1v-2l-4-1-3-1-4-4v-2l-4-1v-2l-10-2v-2l-8-2-3-3-2-1v-2l-3-1-4-4v-2l-4-1-6-5-2-6-2-1-2-7v-37l-2-1h2v-33l2-31h2l1-7 1-4h2l1-8 1-2h2l1-5h2l1-4 1-2h2l2-6h2l2-5 5-2 2-4h2l2-4h2v-2l4-1 1-3 6-5h2v-2l6-2h23l8 2v2h7l8 2v2h3v-2l-3-1-1-5h-2l-1-3-1-52h-2l-2-22v-12h-2l-1-15h-2l-2-10v-10h-2l-1-25-1-5v-7h-2l-2-55h-2l-1-5v-10l1-4h2l1-5 1-2h2l2-5h2v-2l4-2h3v-2z" fill="#FDFDFD"/>
<path transform="translate(267,588)" d="m0 0h48l2 1 15 1 6 2h32l38 1 13 2 12 3 11 2 6 3h17l2-1 10-1 1-1h10l11 2 21 1 2 1 9 1 2 1 14 2 6 2h44l33 3 13 4 9 1h29l4-1h10l1 1 10 2 15 2 16 8-1 5-2 2 1 4 3 3 1 13 8 3-1 4-10 3-7 4-1 4h-6l-4-2-19-1-23-3-13-7-1-1h-9l-5 2-11 2h-40l-10-1-1-1-13-1-8-3-11-1h-52l-3-1-16-2-7-3-8-5-7-11-3-8-5-1-2 1-1 4 4 2v3l-4 2v2l-7 4-9 3-10 1-2 1h-20l-2-1-22-2-9-4-8-4-6-2-7 1h-23l-11 2-16-2-7-2-26-2-16-3-14-1-8 2h-8l-13-2-5-3-18-3h-10l-5-5-2-6v-6l1-1 12-2 4-5 11-2 16-5h2l1-3h9l9 6 5 1h12l7-4h2v-2z" fill="#1B1C1E"/>
<path transform="translate(763,437)" d="m0 0h5v2l10 1v2l8 1 3 1 1 2 15 2 3 3 1 3 1 12v11h2l2 20v13h2l1 12v11h2l2 19v12h2l1 11-3 1-2 5h-2l-1 4-4 4h-13v-2h-13l-7-2v-2l-5-1-3-1-1-2-3-1v-2l-6-2-2-3-3-1v-2l-10-2v-2l-6-2v-2l-3-1v-2h-2v-43h2v-30l1-12h2l2-11h2l1-4 1-3h2l2-4h2l1-3h2l1-4 3-1 2-3h2z" fill="#020202"/>
<path transform="translate(0)" d="m0 0h1640v4h-1640z" fill="#FEFEFE"/>
<path transform="translate(370,568)" d="m0 0h11l1 1 10 1v-2h6l3 2 36 2 3 1 14 1 3 1h33l21 1 2 1 19 1 6 2 14 1 5 3 13-2h42l2 1h10l19 4 8 1 57 1v-2h3l5 6 2 1v2l5 2v2l6 1 2 1v2l3 1-19-2-15 1-3-1-17-1-9-2-6-2h-22l-2 1h-34l-8-2-15-1-14-4-17-2-9 2-19-1-37-2-24-6h-30l-23-1-4-1h-29l-6-4-19-4-1-3z" fill="#1B1C1E"/>
<path transform="translate(775,627)" d="m0 0 16 1v2h23l9 1v3h-2v5h2l1 18-1-4-6-1v2l-10 1-1 3 10 1 1 1 1 9-12 3-2 1h-16l-3-1v-2h-2v5l-1 1h-9l-3-3-5-4-2-5v-5l3-4-1-7-2-3v-10l-2-2 1-4 1-1h9z" fill="#1B1C1E"/>
<path transform="translate(42,583)" d="m0 0h7l5 4-1 7-8 8-5 3h-5l-8-10 1-9 5-1h5z" fill="#1C1D1F"/>
<path transform="translate(297,562)" d="m0 0h7l12 4 14 1 2-1 12 1 2 4-9 1-10-1h-22l-10-1-2-5 1-2z" fill="#1C1D1F"/>
<path transform="translate(799,631)" d="m0 0h24v3h-2v11h-3l-1-7-11-3-2-2-5-1z" fill="#040404"/>
<path transform="translate(210,558)" d="m0 0h8l10 2 1 3-2 3h-8l-9-3-2-4z" fill="#1C1D1F"/>
<path transform="translate(1297,809)" d="m0 0 10 1 2 1v4l-7 1-5-2-1-3z" fill="#1C1D1F"/>
<path transform="translate(695,483)" d="m0 0 2 2-1 16v5l-3-2v-11z" fill="#1C1D1F"/>
<path transform="translate(1489,594)" d="m0 0 1 3-3 1-2 4h-2l-2 4h-2l-1 3h-2v-3l5-2 2-4h2l2-4h2z" fill="#1C1D1F"/>
<path transform="translate(478,668)" d="m0 0 14 1v2h-9v-2h-4v2h-4v-2z" fill="#1C1D1F"/>
<path transform="translate(756,657)" d="m0 0 5 1 1 3-5 3-3-3z" fill="#1C1D1F"/>
<path transform="translate(727,413)" d="m0 0 3 1-5 6-5 2-1 3-1-3 4-2 1-3z" fill="#1C1D1F"/>
<path transform="translate(379,661)" d="m0 0h20v1h-10v2h-4v-2h-6z" fill="#1C1D1F"/>
</svg>
